<?xml version="1.0" encoding="UTF-8"?>
<svg xmlns="http://www.w3.org/2000/svg" xmlns:xlink="http://www.w3.org/1999/xlink" width="16pt" height="16pt" viewBox="0 0 16 16" version="1.1">
<g id="surface3045052">
<path style=" stroke:none;fill-rule:nonzero;fill:rgb(20.392157%,59.607843%,85.882353%);fill-opacity:1;" d="M 8 15.398438 C 3.917969 15.398438 0.601562 12.082031 0.601562 8 C 0.601562 3.917969 3.917969 0.601562 8 0.601562 C 12.082031 0.601562 15.398438 3.917969 15.398438 8 C 15.398438 12.082031 12.082031 15.398438 8 15.398438 Z M 8 15.398438 "/>
<path style=" stroke:none;fill-rule:nonzero;fill:rgb(100%,100%,100%);fill-opacity:1;" d="M 8 0.800781 C 11.96875 0.800781 15.199219 4.03125 15.199219 8 C 15.199219 11.96875 11.96875 15.199219 8 15.199219 C 4.03125 15.199219 0.800781 11.96875 0.800781 8 C 0.800781 4.03125 4.03125 0.800781 8 0.800781 M 8 0.398438 C 3.804688 0.398438 0.398438 3.804688 0.398438 8 C 0.398438 12.195312 3.804688 15.601562 8 15.601562 C 12.195312 15.601562 15.601562 12.195312 15.601562 8 C 15.601562 3.804688 12.195312 0.398438 8 0.398438 Z M 8 0.398438 "/>
<path style="fill:none;stroke-width:12.9;stroke-linecap:butt;stroke-linejoin:miter;stroke:rgb(100%,100%,100%);stroke-opacity:1;stroke-miterlimit:10;" d="M 48.081055 86.209961 L 73.192383 111.363281 L 129.755859 54.799805 " transform="matrix(0.0930233,0,0,0.0930233,0,0)"/>
</g>
</svg>
